Coordinates
version=1
nRows=30
nColumns=19
inDegrees=yes

Units are S.I. units (second, meters, Newtons, ...)
If the header above contains a line with 'inDegrees', this indicates whether rotational values are in degrees (yes) or radians (no).

endheader
time	pelvis_tilt	pelvis_list	pelvis_rotation	pelvis_tx	pelvis_ty	pelvis_tz	hip_flexion_r	hip_adduction_r	hip_rotation_r	knee_angle_r	knee_angle_r_beta	ankle_angle_r	hip_flexion_l	hip_adduction_l	hip_rotation_l	knee_angle_l	knee_angle_l_beta	ankle_angle_l
     11.47333333	      4.03589441	     -3.70107999	      2.90657974	      2.12729482	      0.87963144	      1.00929922	     19.76047391	      6.92510059	     -8.44399158	     18.73725092	      0.32702672	     -6.46813092	    -21.10884156	     -9.10702136	    -19.72576161	     45.69572911	      0.79754093	    -15.98240821
     11.48000000	      4.80339940	     -4.31966364	      2.27290415	      2.12817964	      0.87684917	      1.01035251	     18.65293413	      7.96861362	     -8.98009477	     19.94364034	      0.34808219	     -5.45240218	    -21.14028031	    -10.51023804	    -20.78144130	     49.27032172	      0.85992934	    -14.95968694
     11.48666667	      5.36705464	     -4.98189374	      1.73531779	      2.12883577	      0.87363918	      1.01130873	     17.75990781	      8.99073169	     -9.44470244	     21.35549956	      0.37272378	     -4.20696680	    -20.77124061	    -11.94027448	    -21.39097414	     53.00911831	      0.92518365	    -13.95588134
     11.49333333	      5.91975399	     -5.55785226	      1.13234469	      2.12925223	      0.87020642	      1.01216105	     16.94504240	      9.90267180	     -9.57827958	     23.11906804	      0.40350386	     -2.51259435	    -20.30858237	    -13.09049798	    -21.60295543	     56.69123013	      0.98944862	    -12.99532704
     11.50000000	      6.09739348	     -5.97991546	      0.53615040	      2.12931492	      0.86631371	      1.01290328	     16.60572679	     10.60861381	     -9.47883628	     25.14964893	      0.43894418	     -0.50076246	    -19.19583723	    -13.94751120	    -21.29886969	     60.47892458	      1.05555636	    -12.14750066
     11.50666667	      6.62569902	     -6.36113455	     -0.13117638	      2.12903598	      0.86267688	      1.01353755	     15.90885182	     11.27650595	     -9.04844312	     27.31387153	      0.47671699	      1.67048836	    -18.41660473	    -14.60031435	    -20.89022276	     64.09012284	      1.11858366	    -11.55799109
     11.51333333	      6.77751223	     -6.58859753	     -0.83365314	      2.12836782	      0.85861089	      1.01410644	     15.72332827	     11.74632320	     -8.46009091	     29.70390155	      0.51843088	      4.08780714	    -16.98829691	    -14.95006813	    -20.10667189	     67.75230570	      1.18250081	    -11.08527639
     11.52000000	      7.02702459	     -6.76626849	     -1.53167440	      2.12727946	      0.85469756	      1.01451166	     15.44573467	     12.14652484	     -7.67334480	     32.10474139	      0.56033344	      6.49324551	    -15.51446781	    -15.12492314	    -19.15758494	     71.31639077	      1.24470583	    -10.84382593
     11.52666667	      7.21650063	     -6.84723388	     -2.23206036	      2.12579036	      0.85082402	      1.01478811	     15.26754773	     12.42108319	     -6.77050599	     34.52736591	      0.60261622	      8.87014632	    -13.79914554	    -15.09373064	    -18.04962868	     74.79765496	      1.30546535	    -10.77248639
     11.53333333	      7.37450271	     -6.89952396	     -2.88446591	      2.12395808	      0.84704162	      1.01489187	     15.11376688	     12.62311839	     -5.86350235	     36.87088425	      0.64351833	     11.10521772	    -11.88921898	    -14.97178090	    -16.82432147	     78.18084623	      1.36451318	    -10.80422825
     11.54000000	      7.41565138	     -6.93458752	     -3.46597103	      2.12188391	      0.84334758	      1.01482243	     15.04249639	     12.76563337	     -5.00107614	     39.07061748	      0.68191092	     13.18714596	     -9.69142744	    -14.82046264	    -15.50527235	     81.46442704	      1.42182248	    -10.91906640
     11.54666667	      7.45808468	     -6.96121627	     -3.98246289	      2.11958488	      0.83988900	      1.01455507	     14.89997975	     12.83285094	     -4.24677479	     41.08825993	      0.71712542	     15.05782545	     -7.38794243	    -14.62398035	    -14.13966692	     84.56523278	      1.47594174	    -11.03259118
     11.55333333	      7.71934916	     -7.04409659	     -4.36917284	      2.11717889	      0.83698646	      1.01409265	     14.35887217	     12.88095288	     -3.61630432	     42.77386420	      0.74654476	     16.64428580	     -5.26665742	    -14.50475801	    -12.78600718	     87.41818188	      1.52573510	    -11.09451526
     11.56000000	      7.51043861	     -7.10228282	     -4.68634720	      2.11470252	      0.83384030	      1.01351542	     14.26197775	     12.85592227	     -3.21444278	     44.31444918	      0.77343304	     18.17784629	     -2.46484658	    -14.39445198	    -11.29632473	     90.18921037	      1.57409867	    -11.15770625
     11.56666667	      7.57397845	     -7.25954920	     -4.88035380	      2.11229327	      0.83137417	      1.01276895	     13.64464295	     12.85564914	     -2.95185696	     45.44931919	      0.79324026	     19.42467133	      0.01665193	    -14.39903860	     -9.85358710	     92.63059644	      1.61670890	    -11.08573887
     11.57333333	      7.54898472	     -7.43059530	     -5.05172400	      2.10993106	      0.82922055	      1.01207994	     12.94402716	     12.85528970	     -2.75862921	     46.27999573	      0.80773830	     20.53306690	      2.60600389	    -14.48441255	     -8.48024238	     94.81137927	      1.65477074	    -10.95837279
     11.58000000	      7.59688677	     -7.66174675	     -5.15609175	      2.10772666	      0.82758908	      1.01134045	     11.95021796	     12.88940831	     -2.63971904	     46.74744132	      0.81589677	     21.45608414	      5.08703072	    -14.63454282	     -7.12132613	     96.67355230	      1.68727179	    -10.69540969
     11.58666667	      7.32674587	     -7.79567232	     -5.34546193	      2.10560557	      0.82608513	      1.01080165	     11.17988955	     12.87305020	     -2.45890950	     47.02958150	      0.82082104	     22.27709027	      7.89740843	    -14.73978131	     -5.88696187	     98.25580918	      1.71488738	    -10.45774965
     11.59333333	      7.40660876	     -8.08271314	     -5.47881197	      2.10382660	      0.82545409	      1.01030515	      9.74151234	     12.99434007	     -2.27129410	     46.84861601	      0.81766260	     22.94965858	     10.17723024	    -15.03778053	     -4.76822291	     99.43143303	      1.73540589	    -10.09121036
     11.60000000	      7.30455945	     -8.29799563	     -5.69002629	      2.10222277	      0.82515839	      1.01003973	      8.36231006	     13.09503248	     -1.96354984	     46.44368739	      0.81059526	     23.48466535	     12.57064632	    -15.30044740	     -3.78153075	    100.28121214	      1.75023733	     -9.69407058
     11.60666667	      7.23185537	     -8.50006025	     -5.99812084	      2.10087096	      0.82542455	      1.01000274	      6.78138980	     13.22052499	     -1.46623757	     45.77503454	      0.79892507	     23.86662146	     14.75883240	    -15.61678303	     -3.02253961	    100.75673822	      1.75853683	     -9.22470846
     11.61333333	      7.10793116	     -8.65605665	     -6.39695992	      2.09980703	      0.82622217	      1.01020328	      5.11146502	     13.32208935	     -0.81280096	     44.87277694	      0.78317770	     24.06675906	     16.83907398	    -15.94703630	     -2.45939292	    100.87550669	      1.76060973	     -8.70386906
     11.62000000	      6.88244383	     -8.53968902	     -6.96249746	      2.09895280	      0.82750200	      1.01063432	      3.51213247	     13.13556020	      0.04081707	     43.90030497	      0.76620486	     24.16289751	     18.82323809	    -16.01072164	     -2.22190225	    100.58752603	      1.75558352	     -8.12463818
     11.62666667	      6.88713262	     -8.85282334	     -7.50284539	      2.09846356	      0.82945283	      1.01130089	      1.38039283	     13.41971422	      1.07655571	     42.45974949	      0.74106243	     23.86623529	     20.36239312	    -16.73057930	     -2.06028034	    100.04287520	      1.74607757	     -7.47474405
     11.63333333	      7.05230321	     -8.77689084	     -8.19962530	      2.09820243	      0.83220956	      1.01214449	     -0.92584555	     13.19443013	      2.28353909	     40.96601226	      0.71499180	     23.45162795	     21.43425388	    -17.03576315	     -2.35791944	     99.02184058	      1.72825715	     -6.75360471
     11.64000000	      6.98052796	     -8.62166271	     -8.96165342	      2.09818419	      0.83512674	      1.01308899	     -2.98329940	     12.85898953	      3.53965220	     39.41244661	      0.68787696	     22.78054512	     22.61314584	    -17.32922750	     -2.80518733	     97.73731746	      1.70583799	     -5.99697275
     11.64666667	      7.01158055	     -8.36347696	     -9.75115015	      2.09844299	      0.83858851	      1.01412015	     -5.16508420	     12.32192972	      4.79997405	     37.74256073	      0.65873195	     21.85000879	     23.45317514	    -17.54886270	     -3.48474636	     96.09678662	      1.67720533	     -5.17999144
     11.65333333	      6.22455674	     -7.80672039	    -10.44873688	      2.09890843	      0.84144120	      1.01495033	     -6.24282900	     11.55668255	      5.70387720	     36.28672952	      0.63332290	     20.69998708	     25.24695939	    -17.40061799	     -3.97161006	     94.31172060	      1.64605005	     -4.42571353
     11.66000000	      6.87399686	     -7.52817867	    -11.25212602	      2.09964791	      0.84615743	      1.01611365	     -9.18536897	     10.73884943	      7.03438177	     34.25002303	      0.59777567	     19.21792677	     24.92151640	    -17.69620912	     -5.20670074	     92.00147118	      1.60572859	     -3.59708095
     11.66666667	      6.88076732	     -6.82670485	    -11.78215619	      2.10062340	      0.85029507	      1.01687082	    -11.14585081	      9.55205142	      7.71089159	     32.44636577	      0.56629591	     17.59343095	     25.41829197	    -17.32741881	     -6.12870402	     89.50366466	      1.56213364	     -2.89781900
